#!OML:ASF X:\für Bonn\!DataBase\2005_08_12_Daniel\c3d\Daniel.ASF
:FULLY-SPECIFIED
:DEGREES
1542
root 18.389 17.3825 -34.5791 -357.904 80.504 -350.882
lowerback 8.75807 -2.92831 -1.06193
upperback 2.31119 -3.94065 -0.325722
thorax -2.45639 -1.93487 0.677561
lowerneck 1.02063 -2.44427 -10.0225
upperneck 13.5311 -3.65002 7.50619
head 4.18192 -1.85454 3.85312
rclavicle -3.12775e-014 9.34288e-015
rhumerus -39.9224 -15.1851 -81.2647
rradius 17.78
rwrist 25.3065
rhand -14.8964 17.4159
rfingers 7.12502
rthumb 11.2646 -12.2617
lclavicle -3.12775e-014 9.34288e-015
lhumerus -12.7675 23.2178 66.9673
lradius 29.3556
lwrist -14.1273
lhand -17.5819 -6.10891
lfingers 7.12502
lthumb 8.67387 23.6929
rfemur -13.1216 -2.90149 31.8787
rtibia 33.3367
rfoot -24.2113 -22.5097
rtoes 7.30769
lfemur -1.45908 20.764 -14.7731
ltibia 54.4168
lfoot -20.0085 -3.5218
ltoes -9.65544
1543
root 18.4771 17.3726 -34.5957 -359.352 80.0485 -352.325
lowerback 8.64947 -3.04182 -0.968481
upperback 2.26963 -4.08112 -0.202694
thorax -2.43444 -2.00628 0.76183
lowerneck 1.24294 -2.54133 -9.99772
upperneck 13.3851 -3.81439 7.63194
head 4.11631 -1.93324 3.88368
rclavicle 5.37837e-014 -3.18055e-015
rhumerus -39.9167 -14.8727 -81.2593
rradius 17.793
rwrist 25.1931
rhand -15.1275 17.4347
rfingers 7.12502
rthumb 11.0418 -12.2548
lclavicle 5.37837e-014 -3.18055e-015
lhumerus -13.5025 23.3157 67.1643
lradius 29.7667
lwrist -13.6765
lhand -17.7105 -6.17938
lfingers 7.12502
lthumb 8.54968 23.6275
rfemur -12.6698 -2.23914 32.0705
rtibia 33.3023
rfoot -24.67 -22.5929
rtoes 7.13554
lfemur -2.36541 20.9602 -14.1463
ltibia 56.3629
lfoot -18.5588 -4.652
ltoes -10.2722
1544
root 18.5641 17.3658 -34.6129 -360.79 79.5796 -353.729
lowerback 8.5901 -3.14946 -0.839337
upperback 2.23491 -4.21118 -0.0952564
thorax -2.43639 -2.07216 0.811577
lowerneck 1.44948 -2.66546 -9.95247
upperneck 13.2568 -4.01421 7.75767
head 4.06175 -2.02847 3.90967
rclavicle -4.58758e-014 1.19271e-015
rhumerus -39.9289 -14.7613 -81.1534
rradius 17.7868
rwrist 25.1973
rhand -15.3113 17.5738
rfingers 7.12502
rthumb 10.8645 -12.1252
lclavicle -4.58758e-014 1.19271e-015
lhumerus -14.243 23.3376 67.4015
lradius 30.1327
lwrist -13.1861
lhand -17.7894 -6.33545
lfingers 7.12502
lthumb 8.47358 23.4745
rfemur -12.1311 -1.57839 32.2817
rtibia 33.1848
rfoot -25.0256 -22.676
rtoes 7.16094
lfemur -3.28584 20.8676 -13.6332
ltibia 58.2769
lfoot -17.0919 -5.58471
ltoes -11.2944
1545
root 18.6489 17.3603 -34.6302 -362.232 79.0936 -355.178
lowerback 8.51446 -3.26192 -0.701513
upperback 2.19008 -4.34641 0.0379262
thorax -2.43837 -2.1407 0.882697
lowerneck 1.62498 -2.78576 -9.9787
upperneck 13.1471 -4.21126 7.94218
head 4.02042 -2.12302 3.96611
rclavicle -5.00503e-014 1.19271e-015
rhumerus -39.9156 -14.6036 -81.0371
rradius 17.8012
rwrist 25.191
rhand -15.4829 17.6732
rfingers 7.12502
rthumb 10.699 -12.0344
lclavicle -5.00503e-014 1.19271e-015
lhumerus -14.9921 23.2838 67.6723
lradius 30.3904
lwrist -12.5604
lhand -17.9951 -6.59327
lfingers 7.12502
lthumb 8.27507 23.2247
rfemur -11.6119 -0.936958 32.5283
rtibia 33.0038
rfoot -25.3219 -22.7435
rtoes 7.16975
lfemur -4.30832 20.4926 -13.2469
ltibia 60.1557
lfoot -15.6726 -6.31363
ltoes -12.5104
1546
root 18.7304 17.3542 -34.6487 -363.93 78.5574 -356.858
lowerback 8.4975 -3.36988 -0.497462
upperback 2.15778 -4.46881 0.190911
thorax -2.46352 -2.20257 0.939283
lowerneck 1.77621 -2.90848 -10.0203
upperneck 13.0383 -4.41034 8.13733
head 3.98456 -2.21882 4.02823
rclavicle 4.75592e-014 -4.57205e-015
rhumerus -39.8435 -14.4196 -80.9247
rradius 17.7959
rwrist 25.0422
rhand -15.5809 17.8183
rfingers 7.12502
rthumb 10.6044 -11.8941
lclavicle 4.75592e-014 -4.57205e-015
lhumerus -15.7626 23.2071 67.9711
lradius 30.6082
lwrist -11.886
lhand -18.0929 -6.86601
lfingers 7.12502
lthumb 8.18066 22.9556
rfemur -11.0397 -0.292483 32.8556
rtibia 32.7766
rfoot -25.5573 -22.7728
rtoes 7.21111
lfemur -5.31406 19.9099 -12.8424
ltibia 61.986
lfoot -14.3766 -6.95935
ltoes -13.3085
1547
root 18.8084 17.3472 -34.6693 -365.598 77.9528 -358.531
lowerback 8.50585 -3.46376 -0.267301
upperback 2.10861 -4.56982 0.35447
thorax -2.52179 -2.25362 0.992578
lowerneck 1.92035 -3.04206 -10.0343
upperneck 12.9523 -4.62236 8.31624
head 3.95761 -2.32038 4.08035
rclavicle -2.43449e-014 2.78299e-015
rhumerus -39.7996 -14.2807 -80.7795
rradius 17.831
rwrist 24.8717
rhand -15.553 17.9001
rfingers 7.12502
rthumb 10.6313 -11.811
lclavicle -2.43449e-014 2.78299e-015
lhumerus -16.5617 23.0646 68.2688
lradius 30.7838
lwrist -11.2306
lhand -18.1509 -7.16916
lfingers 7.12502
lthumb 8.12467 22.6547
rfemur -10.4967 0.353822 33.2156
rtibia 32.5345
rfoot -25.7546 -22.7785
rtoes 7.24287
lfemur -6.3603 19.1615 -12.4758
ltibia 63.7568
lfoot -13.4234 -7.50633
ltoes -13.5751
1548
root 18.8828 17.3402 -34.6911 -367.208 77.2605 -360.156
lowerback 8.56129 -3.54599 -0.00625148
upperback 2.05465 -4.65153 0.520888
thorax -2.61376 -2.29483 1.0334
lowerneck 2.02813 -3.16553 -10.0481
upperneck 12.8902 -4.81976 8.5086
head 3.94311 -2.41363 4.13691
rclavicle -8.47817e-014 -1.98785e-015
rhumerus -39.7338 -14.2039 -80.6011
rradius 17.8572
rwrist 24.7028
rhand -15.4747 17.9204
rfingers 7.12502
rthumb 10.7069 -11.7868
lclavicle -8.47817e-014 -1.98785e-015
lhumerus -17.3563 22.9998 68.5725
lradius 30.9034
lwrist -10.5596
lhand -18.0978 -7.41822
lfingers 7.12502
lthumb 8.17592 22.4036
rfemur -9.96612 1.01361 33.6057
rtibia 32.2949
rfoot -25.8945 -22.7195
rtoes 7.37113
lfemur -7.41655 18.3397 -12.1127
ltibia 65.449
lfoot -12.7741 -7.90756
ltoes -13.4527
1549
root 18.9539 17.3334 -34.7156 -368.526 76.4814 -361.492
lowerback 8.67092 -3.60807 0.212006
upperback 1.99471 -4.70799 0.703659
thorax -2.73762 -2.32295 1.11645
lowerneck 2.06373 -3.2866 -10.0715
upperneck 12.8691 -5.00559 8.66442
head 3.95198 -2.50183 4.18297
rclavicle -2.94139e-014 1.27222e-014
rhumerus -39.6348 -14.0972 -80.4023
rradius 17.9103
rwrist 24.4598
rhand -15.3581 17.8939
rfingers 7.12502
rthumb 10.8193 -11.8075
lclavicle -2.94139e-014 1.27222e-014
lhumerus -18.1934 23.0678 68.9082
lradius 31.01
lwrist -10.0911
lhand -17.9346 -7.6751
lfingers 7.12502
lthumb 8.33349 22.1405
rfemur -9.47902 1.74094 33.9702
rtibia 32.1041
rfoot -26.0369 -22.6473
rtoes 7.43893
lfemur -8.49348 17.5246 -11.7914
ltibia 67.0411
lfoot -12.3168 -8.13093
ltoes -13.5545
1550
root 19.0212 17.3264 -34.7429 -369.694 75.5672 -362.694
lowerback 8.8231 -3.63088 0.453897
upperback 1.921 -4.70835 0.881712
thorax -2.9025 -2.32311 1.17951
lowerneck 2.15254 -3.40167 -10.0661
upperneck 12.8064 -5.18836 8.84006
head 3.93902 -2.58761 4.2314
rclavicle -3.88438e-014 -6.36111e-015
rhumerus -39.5386 -14.0918 -80.1774
rradius 17.9333
rwrist 24.2661
rhand -15.2859 17.798
rfingers 7.12502
rthumb 10.889 -11.8996
lclavicle -3.88438e-014 -6.36111e-015
lhumerus -19.002 23.2468 69.2568
lradius 31.0161
lwrist -9.83799
lhand -17.725 -7.85202
lfingers 7.12502
lthumb 8.53577 21.9554
rfemur -9.06329 2.54262 34.3553
rtibia 32.0119
rfoot -26.1546 -22.5463
rtoes 7.53944
lfemur -9.5746 16.7795 -11.4509
ltibia 68.5137
lfoot -12.0568 -8.06904
ltoes -14.0941
1551
root 19.0862 17.3161 -34.772 -370.438 74.5279 -363.467
lowerback 8.99601 -3.61751 0.632819
upperback 1.86062 -4.66507 1.04136
thorax -3.06221 -2.30127 1.25466
lowerneck 2.20853 -3.50865 -10.0351
upperneck 12.744 -5.35438 8.98219
head 3.9289 -2.66491 4.26511
rclavicle -9.4696e-014 2.34566e-014
rhumerus -39.3887 -14.1648 -79.94
rradius 17.9468
rwrist 24.0933
rhand -15.248 17.66
rfingers 7.12502
rthumb 10.9256 -12.0357
lclavicle -9.4696e-014 2.34566e-014
lhumerus -19.8345 23.4738 69.6023
lradius 31.0313
lwrist -9.72265
lhand -17.4602 -8.02357
lfingers 7.12502
lthumb 8.7913 21.7733
rfemur -8.72318 3.36097 34.6662
rtibia 32.0445
rfoot -26.2739 -22.3394
rtoes 7.61603
lfemur -10.5885 16.2069 -11.1635
ltibia 69.8194
lfoot -12.0627 -7.71221
ltoes -15.2656
